<svg width="360" height="76" viewBox="0 0 360 76" fill="none" xmlns="http://www.w3.org/2000/svg">
<path d="M0.666667 70C0.666667 72.9455 3.05448 75.3333 6 75.3333C8.94552 75.3333 11.3333 72.9455 11.3333 70C11.3333 67.0545 8.94552 64.6667 6 64.6667C3.05448 64.6667 0.666667 67.0545 0.666667 70ZM77.5 5.5V4.5C77.2526 4.5 77.0139 4.59174 76.8302 4.75748L77.5 5.5ZM348.667 5.5C348.667 8.44552 351.054 10.8333 354 10.8333C356.946 10.8333 359.333 8.44552 359.333 5.5C359.333 2.55448 356.946 0.166667 354 0.166667C351.054 0.166667 348.667 2.55448 348.667 5.5ZM6.66982 70.7425L78.1698 6.24252L76.8302 4.75748L5.33018 69.2575L6.66982 70.7425ZM77.5 6.5H354V4.5H77.5V6.5Z" fill="#B9B9B9"/>
</svg>
