<svg width="38" height="44" viewBox="0 0 38 44" fill="none" xmlns="http://www.w3.org/2000/svg">
<path d="M34.281 14.3077C34.281 14.3077 34.281 14.1699 34.281 14.1042C33.9825 10.3184 32.2003 6.78032 29.2915 4.19871C26.3827 1.6171 22.562 0.182617 18.5949 0.182617C14.6277 0.182617 10.8071 1.6171 7.89824 4.19871C4.98942 6.78032 3.20726 10.3184 2.90877 14.1042C2.90877 14.1699 2.90877 14.3077 2.90877 14.3077H0V43.2478H5.73521L10.2287 32.3493H26.8993L31.3996 43.2478H37.1349V14.3077H34.281ZM26.9541 22.4685C26.9541 23.3417 26.6317 23.7815 25.5821 23.7815H11.5253C10.5031 23.7815 10.1533 23.3679 10.1533 22.4685V17.551C10.1533 12.4235 14.2694 9.60696 18.5365 9.60696C22.8036 9.60696 26.9267 12.4235 26.9267 17.551L26.9541 22.4685Z" fill="#2462A7"/>
</svg>
