<svg width="223" height="125" viewBox="0 0 223 125" fill="none" xmlns="http://www.w3.org/2000/svg">
<path d="M0.166667 5.5C0.166667 8.44552 2.55448 10.8333 5.5 10.8333C8.44552 10.8333 10.8333 8.44552 10.8333 5.5C10.8333 2.55448 8.44552 0.166667 5.5 0.166667C2.55448 0.166667 0.166667 2.55448 0.166667 5.5ZM72 119L71.1372 119.506C71.3166 119.812 71.645 120 72 120V119ZM212.167 119C212.167 121.946 214.554 124.333 217.5 124.333C220.446 124.333 222.833 121.946 222.833 119C222.833 116.054 220.446 113.667 217.5 113.667C214.554 113.667 212.167 116.054 212.167 119ZM4.63719 6.00552L71.1372 119.506L72.8628 118.494L6.36281 4.99448L4.63719 6.00552ZM72 120H217.5V118H72V120Z" fill="#B9B9B9"/>
</svg>
